<svg t="1728560152803" class="icon" viewBox="0 0 1024 1024" version="1.1" xmlns="http://www.w3.org/2000/svg" p-id="1520" width="64" height="64"><path d="M823.73875107 362.78744488c-10.36261286-10.23079505-27.02698764-10.17835071-37.28329541 0.1587486L516.32448819 635.55619404 242.42181814 364.10704434c-10.36261286-10.25630777-27.02698764-10.17835071-37.3102262 0.1587486-10.25630777 10.36261286-10.17835071 27.05250037 0.1587486 37.31022619l291.11983045 288.48346601c0.44789858 0.44789858 1.02761499 0.55420367 1.47693081 0.97517148 0.10488785 0.10488785 0.13181781 0.23670566 0.23670567 0.34301074 5.14091025 5.08846674 11.86505723 7.64687411 18.56227339 7.64687412 6.77659048 0 13.57869369-2.61085089 18.72102202-7.80420548l288.48346599-291.11983044C834.15380826 389.7350574 834.0758512 373.04516989 823.73875107 362.78744488z" fill="#ffffff" p-id="1521"></path></svg>
