<svg t="1728560474229" class="icon" viewBox="0 0 1024 1024" version="1.1" xmlns="http://www.w3.org/2000/svg" p-id="1640" width="64" height="64"><path d="M467.74367697 492.94435502H315.84777487c-13.93987611 0-25.24141409 11.30153798-25.24141409 25.24209302 0 13.94462864 11.30153798 25.24616663 25.24141409 25.24616663l115.94837531-0.15479699L247.51440984 727.53851105c-9.56889802 9.90768616-9.43039543 25.65081139 0.30755718 35.38808506 9.73387901 9.73795261 25.48107785 9.87577625 35.38469039 0.30755718l184.33605506-184.30889771v116.17513932c0 13.94055503 11.30153798 25.24209302 25.24209302 25.24209302 13.94462864 0 25.24616663-11.30153798 25.24616663-25.24209302V543.22893442c-0.04209392-27.75414939-22.53043-50.24588014-50.28729514-50.2845794M775.47397827 260.52007254a25.21289885 25.21289885 0 0 0-35.69632117 0L568.29110987 432.0032251v-115.77185244c0-13.93987611-11.30153798-25.24141409-25.24141408-25.24141409-13.94462864 0-25.24616663 11.30153798-25.24616662 25.24141409v151.89454425c0 27.71952376 22.56912923 50.26489031 50.28729513 50.26489032h151.86806582c13.94462864 0 25.24616663-11.30561158 25.24616663-25.2454877 0-13.94462864-11.30153798-25.24616663-25.24616662-25.24616663l-116.34894647 0.17720182L775.47397827 296.21299904a25.21833032 25.21833032 0 0 0 0-35.6929265" fill="#ffffff" p-id="1641"></path></svg>
