<svg t="1728560486554" class="icon" viewBox="0 0 1024 1024" version="1.1" xmlns="http://www.w3.org/2000/svg" p-id="1847" width="64" height="64"><path d="M734.15404547 241.45084888H585.96105025c-13.60176689 0-24.6296944 11.00959628-24.62969442 24.59303198 0 13.57868314 11.02792751 24.58827942 24.62969443 24.58827942l113.11721987-0.14597085-155.16497009 154.89747003c-9.6184602 9.60216578-9.6184602 25.170126-1e-8 34.77229178s25.21289885 9.60216578 34.83135906 0l155.21045868-154.94567435v113.16406633c0 13.58343568 11.03200112 24.59303196 24.63444695 24.59303197 13.60176689 0 24.63376802-11.00891735 24.63376801-24.59303197V290.43662724c-0.04141498-27.0385528-21.9879616-48.94436337-49.06928726-48.98577836zM445.25534091 543.84472769L290.04488223 698.79040206v-113.16474528c0-13.58343568-11.03200112-24.59303196-24.63444695-24.59303196-13.60176689 0-24.63376802 11.00891735-24.63376801 24.59303196V733.56337276c0.04141498 27.0385528 21.9879616 48.94436337 49.06928726 48.98577836h148.19299521c13.60176689 0 24.6296944-11.00959628 24.62969442-24.59303197 0-13.57868314-11.02792751-24.58760049-24.62969441-24.58760049l-113.11721988 0.14597085L480.08669997 578.61701948c9.6184602-9.60216578 9.6184602-25.170126 0-34.77229179s-25.21289885-9.60216578-34.83135906 0z" fill="#ffffff" p-id="1848"></path></svg>
