<svg t="1728560100284" class="icon" viewBox="0 0 1024 1024" version="1.1" xmlns="http://www.w3.org/2000/svg" p-id="1520" width="64" height="64"><path d="M821.26113522 598.64284015L530.08744403 310.13244418c-0.42238504-0.42238504-1.00210226-0.55420367-1.45000003-0.94965793-0.10488785-0.10488785-0.13181781-0.26363645-0.23670566-0.36852429-10.36261286-10.23079505-27.05250037-10.17835071-37.31022619 0.1587486L202.60704614 600.11977097c-10.25630777 10.36261286-10.17835071 27.02698764 0.1587486 37.2832954 5.14091025 5.08846674 11.86505723 7.64687411 18.5622734 7.64687413 6.77659048 0 13.57869369-2.61085089 18.72102201-7.80420549L510.18147567 364.66124802l273.95511357 271.42363696c5.14091025 5.08846674 11.83954367 7.64687411 18.5622734 7.64687412 6.80210403 0 13.57869369-2.61085089 18.721022-7.80420549C831.67619241 625.59045349 831.59681812 608.89914793 821.26113522 598.64284015z" fill="#ffffff" p-id="1521"></path></svg>
